<svg width="18" height="87" viewBox="0 0 18 87" fill="none" xmlns="http://www.w3.org/2000/svg">
<path d="M14.7669 76.3741H11.9003V69.2075V14.7408C11.9003 14.4541 11.7569 14.0241 11.6136 13.8808L7.45693 1.4108C7.3136 0.837471 6.74026 0.407471 6.16693 0.407471C5.59359 0.407471 5.02026 0.837471 4.87692 1.4108L0.720262 13.8808C0.576928 14.1675 0.433594 14.4541 0.433594 14.7408V69.2075V84.9741C0.433594 85.8341 1.00693 86.4075 1.86693 86.4075H10.4669C11.3269 86.4075 11.9003 85.8341 11.9003 84.9741V79.2408H16.2003C17.0603 79.2408 17.6336 78.6675 17.6336 77.8075V34.8075H14.7669V76.3741ZM3.30026 16.1741H9.03359V67.7741H3.30026V16.1741ZM6.16693 6.42747L8.46026 13.3075H3.8736L6.16693 6.42747ZM9.03359 83.5408H3.30026V70.6408H9.03359V83.5408Z" fill="#CDA274"/>
</svg>
