<svg width="20" height="21" viewBox="0 0 20 21" fill="none" xmlns="http://www.w3.org/2000/svg">
<path d="M19.4475 6.33099C18.6349 6.33608 18.7148 7.84396 17.7025 7.13251C17.3265 6.8689 17.0953 6.4857 16.6233 6.36916C16.2109 6.26738 15.7885 6.37323 15.3812 6.44397C14.9183 6.52437 14.3693 6.56051 14.0182 6.91318C13.6787 7.25262 13.4991 7.70808 13.1379 8.04956C12.4392 8.71113 12.1442 9.43327 12.5965 10.3686C13.0316 11.2679 13.9418 11.7559 14.9238 11.6918C15.8887 11.6272 16.8909 11.0643 16.8631 12.4745C16.853 12.9732 16.9567 13.3193 17.109 13.7829C17.2501 14.2103 17.2405 14.6246 17.2729 15.0658C17.3326 15.8902 17.4834 16.8144 17.8902 17.5426L18.6491 16.4658C18.7427 16.3325 18.9385 16.1457 18.985 15.9885C19.0675 15.7101 18.9051 15.2317 18.8864 14.9198C18.8676 14.6078 18.8767 14.2918 18.8292 13.9798C18.7624 13.5427 18.5054 13.133 18.47 12.7009C18.4047 11.8964 18.5509 11.2541 17.9347 10.5814C17.3397 9.9325 16.4675 9.77678 15.6342 9.90858C15.2142 9.97474 13.5239 10.2465 14.2024 9.28111C14.3364 9.09128 14.5707 8.93556 14.7215 8.7549C14.8525 8.59765 14.9663 8.30859 15.1201 8.18594C15.2739 8.0633 15.9802 7.92233 16.1826 7.98493C16.385 8.04752 16.596 8.34116 16.7715 8.47144C17.0959 8.71719 17.4744 8.88059 17.875 8.94777C18.5661 9.04955 20.0111 8.64549 19.9999 7.75389C19.9979 7.32641 19.6033 6.73099 19.4475 6.33099ZM11.4475 13.6673C11.1778 12.5254 9.63524 12.1437 8.80347 11.5244C8.32535 11.1681 7.89986 10.618 7.27199 10.5732C6.98259 10.5523 6.74024 10.6155 6.45337 10.5406C6.19029 10.4724 5.98386 10.33 5.70357 10.3671C5.17992 10.4363 4.84954 10.9992 4.28694 10.9228C3.75317 10.8506 3.20321 10.2226 3.08179 9.71113C2.92596 9.05363 3.44303 8.8404 3.99703 8.78187C4.22825 8.75744 4.48779 8.73098 4.7099 8.81597C5.00234 8.92538 5.14046 9.21342 5.40304 9.35897C5.89532 9.63021 5.99499 9.19663 5.91961 8.75694C5.80678 8.09841 5.67524 7.82971 6.25909 7.37679C6.66385 7.06432 7.00991 6.83837 6.94515 6.27705C6.9067 5.94728 6.72709 5.79817 6.89456 5.46993C7.02155 5.22005 7.37014 4.99461 7.59731 4.8455C8.18369 4.46077 10.1093 4.48927 9.32256 3.41243C9.09135 3.0964 8.66484 2.53152 8.26009 2.45416C7.75415 2.35798 7.52951 2.92592 7.17687 3.1763C6.81259 3.43533 6.10326 3.72948 5.73848 3.32897C5.24772 2.79004 6.0638 2.61294 6.24442 2.23686C6.42504 1.86078 5.82601 1.14984 5.50524 0.969691L3.99703 2.67096C3.95371 2.95587 3.96879 3.24669 4.04135 3.52552C4.11392 3.80435 4.24243 4.0653 4.41899 4.29232C4.71901 4.68062 5.19662 4.8053 5.21837 5.33558C5.23962 5.84448 5.1607 6.10504 4.82981 6.4628C4.68663 6.61547 4.58544 6.83226 4.43973 6.97526C4.26113 7.14982 4.32741 7.09638 4.04864 7.14422C3.52448 7.23328 3.07824 7.37068 2.5718 7.51114C1.72789 7.74574 1.64997 6.35898 1.26546 5.81496L0.000606292 6.84244C-0.0130541 7.01089 0.208042 7.32081 0.268249 7.50401C0.613806 8.55083 1.31099 9.3605 1.76128 10.362C2.23535 11.4226 3.50829 11.1284 4.07039 12.0577C4.56925 12.8821 4.0365 13.9259 4.40988 14.789C4.68106 15.4154 5.32057 15.5523 5.76175 16.0103C6.21255 16.4729 6.20293 17.106 6.27174 17.708C6.34934 18.4162 6.47528 19.1181 6.64867 19.8088C6.70989 20.0475 6.76605 20.363 6.92845 20.5599C7.03976 20.6953 7.42174 20.8118 7.26743 20.8566C7.48296 20.8923 7.86697 21.0948 8.04658 20.9462C8.28336 20.7508 8.22012 20.1493 8.2611 19.8775C8.38404 19.0683 8.78677 18.277 9.33015 17.6714C9.86696 17.0739 10.6026 16.6694 11.0559 15.992C11.4976 15.3315 11.6307 14.4404 11.4475 13.6673ZM9.75818 15.0068C9.45461 15.5518 8.77868 15.9167 8.34408 16.3498C8.22619 16.4673 7.97524 16.8745 7.82751 16.7864C7.72177 16.7233 7.68585 16.1951 7.64689 16.074C7.44591 15.464 7.06223 14.9316 6.54849 14.5498C6.39013 14.4292 5.99752 14.2724 5.90696 14.107C5.80577 13.9274 5.89684 13.5035 5.90038 13.3081C5.90595 13.0231 5.77693 12.5493 5.84675 12.2903C5.9277 11.9915 5.77187 12.1717 6.03749 12.1126C6.17764 12.0811 6.75643 12.1834 6.93098 12.22C7.20824 12.278 7.36103 12.4516 7.5796 12.6271C8.15435 13.0908 8.78728 13.4495 9.43134 13.8047C9.9302 14.0826 10.0769 14.4343 9.75818 15.0068ZM6.23683 0.984958C6.47665 1.22058 6.7023 1.49946 7.06 1.52287C7.39847 1.54577 7.71772 1.36155 8.01319 1.5931C8.34104 1.84755 8.57731 2.16969 9.01242 2.24907C9.43337 2.32592 9.8791 2.07859 9.98332 1.64552C10.0845 1.23279 9.86645 0.783941 9.8533 0.369694C9.8533 0.312187 9.88416 0.0567178 9.8447 0.013461C9.81535 -0.0191088 9.57047 0.0175322 9.53304 0.01855C9.25882 0.0266924 8.98527 0.0456916 8.7124 0.0755473C7.71763 0.183849 6.74342 0.434913 5.81943 0.821091C5.94237 0.906587 6.09669 0.940683 6.23683 0.984958ZM14.936 3.84398C15.3655 3.84398 15.8016 3.6506 15.663 3.15085C15.5466 2.73202 15.3483 2.27757 14.8657 2.50353C14.5585 2.64704 14.1234 3.01243 14.0875 3.37477C14.0465 3.78596 14.6496 3.84398 14.936 3.84398ZM14.5929 6.03074C15.0316 6.29486 15.6822 6.17069 16.0131 5.79359C16.2717 5.49843 16.4239 4.98596 16.8889 4.98647C17.0936 4.98604 17.2903 5.06666 17.4363 5.21089C17.6286 5.41089 17.5906 5.59868 17.6316 5.84906C17.7232 6.4114 18.3227 5.88112 18.4791 5.66331C18.5803 5.52133 18.7174 5.31064 18.6713 5.12591C18.6288 4.95339 18.4285 4.76968 18.3394 4.61141C18.0794 4.15339 17.8654 3.62057 17.4758 3.2506C17.1009 2.89436 16.64 2.93559 16.2843 3.30556C15.9929 3.6109 15.6544 3.85263 15.4551 4.22413C15.3144 4.4852 15.1561 4.60988 14.8712 4.67756C14.7144 4.71471 14.5353 4.72845 14.4037 4.83431C14.0374 5.12438 14.2459 5.82107 14.5929 6.03074Z" fill="#CDA274"/>
</svg>
