<svg width="41" height="63" viewBox="0 0 41 63" fill="none" xmlns="http://www.w3.org/2000/svg">
<path d="M20.0667 0.740845C9.03 0.740845 0 9.77084 0 20.8075C0 28.5475 4.44333 35.5708 11.4667 38.8675V49.4742V56.6408C11.4667 57.5008 12.04 58.0742 12.9 58.0742H18.6333V62.3742H21.5V58.0742H27.2333C28.0933 58.0742 28.6667 57.5008 28.6667 56.6408V49.4742V38.8675C35.69 35.5708 40.1333 28.5475 40.1333 20.8075C40.1333 9.77084 31.1033 0.740845 20.0667 0.740845ZM25.8 55.2075H14.3333V50.9075H25.8V55.2075ZM26.66 36.7175C26.0867 36.8608 25.8 37.4342 25.8 38.0075V48.0408H14.3333V45.1742H21.5V42.3075H14.3333V38.0075C14.3333 37.4342 14.0467 36.8608 13.4733 36.7175C7.02333 33.9942 2.86667 27.6875 2.86667 20.8075C2.86667 11.3475 10.6067 3.60751 20.0667 3.60751C29.5267 3.60751 37.2667 11.3475 37.2667 20.8075C37.2667 27.6875 33.11 33.9942 26.66 36.7175Z" fill="#CDA274"/>
</svg>
